<?xml version="1.0" encoding="utf-8"?>
<!-- Generator: Adobe Illustrator 18.1.1, SVG Export Plug-In . SVG Version: 6.00 Build 0)  -->
<svg version="1.1" id="Layer_1" xmlns="http://www.w3.org/2000/svg" xmlns:xlink="http://www.w3.org/1999/xlink" x="0px" y="0px"
	 viewBox="95.3 240.7 301.4 16.7" enable-background="new 95.3 240.7 301.4 16.7" xml:space="preserve">
<path fill="#39B54A" d="M396.6,242.8c-0.1-0.5-0.5-0.7-1-0.8c-0.2,0-0.5,0-0.7,0c-5.7,0.2-11.4,0.5-17.1,0.9
	c-3.3,0.2-6.5,0.5-9.7,0.6c-2.8,0-5.5,0.1-8.4,0.2c-0.7,0-1.4-0.1-2-0.2c-0.8,0.1-1.6,0.3-2.3,0.5c-3.6,0.3-7.1,0.6-10.8,0.8
	c-3.1,0.2-6,0.6-9.1,0.7c-5.8,0.3-11.7,0.7-17.4,0.9c-9.3,0.6-18.6,1.1-27.8,1.6c-5.9,0.2-11.9,0.3-17.8,0.7
	c-7,0.5-14.1,0.7-21.2,1.2c-5.5,0.5-11.2,0.3-16.8,0.9c-5.4,0.5-11,0.5-16.4,0.6c-8.3,0.2-16.6,0.6-24.9,0.7
	c-7.4,0.1-14.8,0.7-22.2,1c-5.7,0.2-11.4,0.7-17.1,1c-1.9,0.1-3.8,0.1-5.7,0.3c-3.1,0.3-6,0.5-9.1,0.3c-2.8-0.1-5.7-0.5-8.4-0.3
	c-3.8,0.2-7.6,0.1-11.4-0.1c-6.9-0.2-13.7,0-20.4,0.5c-0.5,0-0.9,0.1-1.4,0.1c-0.8,0.1-1.2,0.8-1,1.5c0.2,0.7,0.7,1.1,1.5,1.1
	c0.2,0,0.5,0,0.7-0.1c4.8-1.2,9.5-1.1,14.4-1.1c3.5,0,6.9,0.3,10.4,0.3c5.5,0.1,11,0.1,16.5,0.1c2.7,0,5.4,0,8-0.5
	c0.6-0.1,1.1-0.1,1.7-0.1c5.8,0,11.4-0.3,17.1-0.8c2.5-0.2,4.9-0.5,7.4-0.6c10-0.5,19.9-0.9,29.9-1.1c7.2-0.2,14.6-0.6,21.8-0.5
	c0.5,0,0.9,0,1.4,0c4.4-0.2,8.9-0.7,13.4-0.8c9.1-0.2,18.1-0.8,27.2-1.6c2.3-0.2,4.5-0.2,6.7-0.3c5.9-0.3,11.9-0.7,17.8-1
	c5.2-0.2,10.5-0.3,15.8-0.6c7.2-0.3,14.6-0.7,21.8-1c2.9-0.1,5.9-0.3,8.7-0.7c4.9-0.6,9.8-1.1,14.7-1.2c1-0.7,2.2-0.6,3.3-0.6
	c8.7-0.2,17.4,0,26.1-0.6c3.7-0.2,7.6-0.1,11.4-0.1c0.6,0,1.1,0,1.6-0.5C396.6,243.9,396.8,243.4,396.6,242.8z"/>
</svg>
