<?xml version="1.0" encoding="utf-8"?>
<!-- Generator: Adobe Illustrator 18.1.1, SVG Export Plug-In . SVG Version: 6.00 Build 0)  -->
<svg version="1.1" id="Layer_1" xmlns="http://www.w3.org/2000/svg" xmlns:xlink="http://www.w3.org/1999/xlink" x="0px" y="0px"
	 viewBox="0 0 267.5 17.5" enable-background="new 0 0 267.5 17.5" xml:space="preserve">
<path fill-rule="evenodd" clip-rule="evenodd" fill="#1D1D1B" d="M266.4,2.1c-0.1-0.4-0.4-0.6-0.9-0.7c-0.2,0-0.4,0-0.6,0
	c-5,0.2-10.1,0.4-15.1,0.8c-2.9,0.2-5.7,0.4-8.6,0.5c-2.5,0-4.9,0.1-7.4,0.2c-0.6,0-1.2-0.1-1.8-0.2c-0.7,0.1-1.4,0.3-2,0.4
	c-3.2,0.3-6.3,0.5-9.5,0.7c-2.7,0.2-5.3,0.5-8,0.6c-5.1,0.3-10.3,0.6-15.4,0.8c-8.2,0.5-16.4,1-24.6,1.4c-5.2,0.2-10.5,0.3-15.7,0.6
	c-6.2,0.4-12.5,0.6-18.7,1.1c-4.9,0.4-9.9,0.3-14.8,0.8c-4.8,0.4-9.7,0.4-14.5,0.5c-7.3,0.2-14.7,0.5-22,0.6
	c-6.5,0.1-13.1,0.6-19.6,0.9c-5,0.2-10.1,0.6-15.1,0.9c-1.7,0.1-3.4,0.1-5,0.3c-2.7,0.3-5.3,0.4-8,0.3c-2.5-0.1-5-0.4-7.4-0.3
	c-3.4,0.2-6.7,0.1-10.1-0.1C15.5,12,9.5,12.2,3.6,12.6c-0.4,0-0.8,0.1-1.2,0.1c-0.7,0.1-1.1,0.7-0.9,1.3c0.2,0.6,0.6,1,1.3,1
	c0.2,0,0.4,0,0.6-0.1c4.2-1.1,8.4-1,12.7-1c3.1,0,6.1,0.3,9.2,0.3c4.9,0.1,9.7,0.1,14.6,0.1c2.4,0,4.8,0,7.1-0.4
	c0.5-0.1,1-0.1,1.5-0.1c5.1,0,10.1-0.3,15.1-0.7c2.2-0.2,4.3-0.4,6.5-0.5c8.8-0.4,17.6-0.8,26.4-1c6.4-0.2,12.9-0.5,19.3-0.4
	c0.4,0,0.8,0,1.2,0c3.9-0.2,7.9-0.6,11.8-0.7c8-0.2,16-0.7,24-1.4c2-0.2,4-0.2,5.9-0.3c5.2-0.3,10.5-0.6,15.7-0.9
	c4.6-0.2,9.3-0.3,14-0.5c6.4-0.3,12.9-0.6,19.3-0.9c2.6-0.1,5.2-0.3,7.7-0.6c4.3-0.5,8.7-1,13-1.1c0.9-0.6,1.9-0.5,2.9-0.5
	c7.7-0.2,15.4,0,23.1-0.5c3.3-0.2,6.7-0.1,10.1-0.1c0.5,0,1,0,1.4-0.4C266.4,3.1,266.6,2.6,266.4,2.1z"/>
</svg>
